0
SECTION
2
HEADER
9
$INSUNITS
70
4
0
ENDSEC
0
SECTION
2
TABLES
0
TABLE
2
LAYER
70
4
0
LAYER
2
OUTSIDE
70
0
62
1
6
CONTINUOUS
0
LAYER
2
HOLES
70
0
62
1
6
CONTINUOUS
0
LAYER
2
TEXT
70
0
62
7
6
CONTINUOUS
0
LAYER
2
NUMBERS
70
0
62
7
6
CONTINUOUS
0
ENDTAB
0
ENDSEC
0
SECTION
2
ENTITIES
0
LINE
8
OUTSIDE
10
0
20
0
30
0
11
93.38
21
0
31
0
0
LINE
8
OUTSIDE
10
93.38
20
0
30
0
11
93.38
21
107.9
31
0
0
LINE
8
OUTSIDE
10
93.38
20
107.9
30
0
11
0
21
107.9
31
0
0
LINE
8
OUTSIDE
10
0
20
107.9
30
0
11
0
21
0
31
0
0
LINE
8
HOLES
10
15.78
20
8.3
30
0
11
18.68
21
8.3
31
0
0
LINE
8
HOLES
10
18.68
20
8.3
30
0
11
18.68
21
28
31
0
0
LINE
8
HOLES
10
18.68
20
28
30
0
11
15.78
21
28
31
0
0
LINE
8
HOLES
10
15.78
20
28
30
0
11
15.78
21
8.3
31
0
0
TEXT
8
NUMBERS
10
17.23
20
31.3
30
0
40
2.4
1
19.70
50
0
72
1
11
17.23
21
31.3
31
0
0
LINE
8
HOLES
10
26.88
20
8.25
30
0
11
29.78
21
8.25
31
0
0
LINE
8
HOLES
10
29.78
20
8.25
30
0
11
29.78
21
28.05
31
0
0
LINE
8
HOLES
10
29.78
20
28.05
30
0
11
26.88
21
28.05
31
0
0
LINE
8
HOLES
10
26.88
20
28.05
30
0
11
26.88
21
8.25
31
0
0
TEXT
8
NUMBERS
10
28.33
20
31.3
30
0
40
2.4
1
19.80
50
0
72
1
11
28.33
21
31.3
31
0
0
LINE
8
HOLES
10
37.98
20
8.2
30
0
11
40.88
21
8.2
31
0
0
LINE
8
HOLES
10
40.88
20
8.2
30
0
11
40.88
21
28.1
31
0
0
LINE
8
HOLES
10
40.88
20
28.1
30
0
11
37.98
21
28.1
31
0
0
LINE
8
HOLES
10
37.98
20
28.1
30
0
11
37.98
21
8.2
31
0
0
TEXT
8
NUMBERS
10
39.43
20
31.3
30
0
40
2.4
1
19.90
50
0
72
1
11
39.43
21
31.3
31
0
0
LINE
8
HOLES
10
49.08
20
8.15
30
0
11
51.98
21
8.15
31
0
0
LINE
8
HOLES
10
51.98
20
8.15
30
0
11
51.98
21
28.15
31
0
0
LINE
8
HOLES
10
51.98
20
28.15
30
0
11
49.08
21
28.15
31
0
0
LINE
8
HOLES
10
49.08
20
28.15
30
0
11
49.08
21
8.15
31
0
0
TEXT
8
NUMBERS
10
50.53
20
31.3
30
0
40
2.4
1
20.00
50
0
72
1
11
50.53
21
31.3
31
0
0
LINE
8
HOLES
10
60.18
20
8.1
30
0
11
63.08
21
8.1
31
0
0
LINE
8
HOLES
10
63.08
20
8.1
30
0
11
63.08
21
28.2
31
0
0
LINE
8
HOLES
10
63.08
20
28.2
30
0
11
60.18
21
28.2
31
0
0
LINE
8
HOLES
10
60.18
20
28.2
30
0
11
60.18
21
8.1
31
0
0
TEXT
8
NUMBERS
10
61.63
20
31.3
30
0
40
2.4
1
20.10
50
0
72
1
11
61.63
21
31.3
31
0
0
LINE
8
HOLES
10
71.28
20
8.05
30
0
11
74.18
21
8.05
31
0
0
LINE
8
HOLES
10
74.18
20
8.05
30
0
11
74.18
21
28.25
31
0
0
LINE
8
HOLES
10
74.18
20
28.25
30
0
11
71.28
21
28.25
31
0
0
LINE
8
HOLES
10
71.28
20
28.25
30
0
11
71.28
21
8.05
31
0
0
TEXT
8
NUMBERS
10
72.73
20
31.3
30
0
40
2.4
1
20.20
50
0
72
1
11
72.73
21
31.3
31
0
0
LINE
8
HOLES
10
82.38
20
8
30
0
11
85.28
21
8
31
0
0
LINE
8
HOLES
10
85.28
20
8
30
0
11
85.28
21
28.3
31
0
0
LINE
8
HOLES
10
85.28
20
28.3
30
0
11
82.38
21
28.3
31
0
0
LINE
8
HOLES
10
82.38
20
28.3
30
0
11
82.38
21
8
31
0
0
TEXT
8
NUMBERS
10
83.83
20
31.3
30
0
40
2.4
1
20.30
50
0
72
1
11
83.83
21
31.3
31
0
0
LINE
8
HOLES
10
15.73
20
41.6
30
0
11
18.73
21
41.6
31
0
0
LINE
8
HOLES
10
18.73
20
41.6
30
0
11
18.73
21
61.3
31
0
0
LINE
8
HOLES
10
18.73
20
61.3
30
0
11
15.73
21
61.3
31
0
0
LINE
8
HOLES
10
15.73
20
61.3
30
0
11
15.73
21
41.6
31
0
0
TEXT
8
NUMBERS
10
17.23
20
64.6
30
0
40
2.4
1
19.70
50
0
72
1
11
17.23
21
64.6
31
0
0
LINE
8
HOLES
10
26.83
20
41.55
30
0
11
29.83
21
41.55
31
0
0
LINE
8
HOLES
10
29.83
20
41.55
30
0
11
29.83
21
61.35
31
0
0
LINE
8
HOLES
10
29.83
20
61.35
30
0
11
26.83
21
61.35
31
0
0
LINE
8
HOLES
10
26.83
20
61.35
30
0
11
26.83
21
41.55
31
0
0
TEXT
8
NUMBERS
10
28.33
20
64.6
30
0
40
2.4
1
19.80
50
0
72
1
11
28.33
21
64.6
31
0
0
LINE
8
HOLES
10
37.93
20
41.5
30
0
11
40.93
21
41.5
31
0
0
LINE
8
HOLES
10
40.93
20
41.5
30
0
11
40.93
21
61.4
31
0
0
LINE
8
HOLES
10
40.93
20
61.4
30
0
11
37.93
21
61.4
31
0
0
LINE
8
HOLES
10
37.93
20
61.4
30
0
11
37.93
21
41.5
31
0
0
TEXT
8
NUMBERS
10
39.43
20
64.6
30
0
40
2.4
1
19.90
50
0
72
1
11
39.43
21
64.6
31
0
0
LINE
8
HOLES
10
49.03
20
41.45
30
0
11
52.03
21
41.45
31
0
0
LINE
8
HOLES
10
52.03
20
41.45
30
0
11
52.03
21
61.45
31
0
0
LINE
8
HOLES
10
52.03
20
61.45
30
0
11
49.03
21
61.45
31
0
0
LINE
8
HOLES
10
49.03
20
61.45
30
0
11
49.03
21
41.45
31
0
0
TEXT
8
NUMBERS
10
50.53
20
64.6
30
0
40
2.4
1
20.00
50
0
72
1
11
50.53
21
64.6
31
0
0
LINE
8
HOLES
10
60.13
20
41.4
30
0
11
63.13
21
41.4
31
0
0
LINE
8
HOLES
10
63.13
20
41.4
30
0
11
63.13
21
61.5
31
0
0
LINE
8
HOLES
10
63.13
20
61.5
30
0
11
60.13
21
61.5
31
0
0
LINE
8
HOLES
10
60.13
20
61.5
30
0
11
60.13
21
41.4
31
0
0
TEXT
8
NUMBERS
10
61.63
20
64.6
30
0
40
2.4
1
20.10
50
0
72
1
11
61.63
21
64.6
31
0
0
LINE
8
HOLES
10
71.23
20
41.35
30
0
11
74.23
21
41.35
31
0
0
LINE
8
HOLES
10
74.23
20
41.35
30
0
11
74.23
21
61.55
31
0
0
LINE
8
HOLES
10
74.23
20
61.55
30
0
11
71.23
21
61.55
31
0
0
LINE
8
HOLES
10
71.23
20
61.55
30
0
11
71.23
21
41.35
31
0
0
TEXT
8
NUMBERS
10
72.73
20
64.6
30
0
40
2.4
1
20.20
50
0
72
1
11
72.73
21
64.6
31
0
0
LINE
8
HOLES
10
82.33
20
41.3
30
0
11
85.33
21
41.3
31
0
0
LINE
8
HOLES
10
85.33
20
41.3
30
0
11
85.33
21
61.6
31
0
0
LINE
8
HOLES
10
85.33
20
61.6
30
0
11
82.33
21
61.6
31
0
0
LINE
8
HOLES
10
82.33
20
61.6
30
0
11
82.33
21
41.3
31
0
0
TEXT
8
NUMBERS
10
83.83
20
64.6
30
0
40
2.4
1
20.30
50
0
72
1
11
83.83
21
64.6
31
0
0
LINE
8
HOLES
10
15.68
20
74.9
30
0
11
18.78
21
74.9
31
0
0
LINE
8
HOLES
10
18.78
20
74.9
30
0
11
18.78
21
94.6
31
0
0
LINE
8
HOLES
10
18.78
20
94.6
30
0
11
15.68
21
94.6
31
0
0
LINE
8
HOLES
10
15.68
20
94.6
30
0
11
15.68
21
74.9
31
0
0
TEXT
8
NUMBERS
10
17.23
20
97.9
30
0
40
2.4
1
19.70
50
0
72
1
11
17.23
21
97.9
31
0
0
LINE
8
HOLES
10
26.78
20
74.85
30
0
11
29.88
21
74.85
31
0
0
LINE
8
HOLES
10
29.88
20
74.85
30
0
11
29.88
21
94.65
31
0
0
LINE
8
HOLES
10
29.88
20
94.65
30
0
11
26.78
21
94.65
31
0
0
LINE
8
HOLES
10
26.78
20
94.65
30
0
11
26.78
21
74.85
31
0
0
TEXT
8
NUMBERS
10
28.33
20
97.9
30
0
40
2.4
1
19.80
50
0
72
1
11
28.33
21
97.9
31
0
0
LINE
8
HOLES
10
37.88
20
74.8
30
0
11
40.98
21
74.8
31
0
0
LINE
8
HOLES
10
40.98
20
74.8
30
0
11
40.98
21
94.7
31
0
0
LINE
8
HOLES
10
40.98
20
94.7
30
0
11
37.88
21
94.7
31
0
0
LINE
8
HOLES
10
37.88
20
94.7
30
0
11
37.88
21
74.8
31
0
0
TEXT
8
NUMBERS
10
39.43
20
97.9
30
0
40
2.4
1
19.90
50
0
72
1
11
39.43
21
97.9
31
0
0
LINE
8
HOLES
10
48.98
20
74.75
30
0
11
52.08
21
74.75
31
0
0
LINE
8
HOLES
10
52.08
20
74.75
30
0
11
52.08
21
94.75
31
0
0
LINE
8
HOLES
10
52.08
20
94.75
30
0
11
48.98
21
94.75
31
0
0
LINE
8
HOLES
10
48.98
20
94.75
30
0
11
48.98
21
74.75
31
0
0
TEXT
8
NUMBERS
10
50.53
20
97.9
30
0
40
2.4
1
20.00
50
0
72
1
11
50.53
21
97.9
31
0
0
LINE
8
HOLES
10
60.08
20
74.7
30
0
11
63.18
21
74.7
31
0
0
LINE
8
HOLES
10
63.18
20
74.7
30
0
11
63.18
21
94.8
31
0
0
LINE
8
HOLES
10
63.18
20
94.8
30
0
11
60.08
21
94.8
31
0
0
LINE
8
HOLES
10
60.08
20
94.8
30
0
11
60.08
21
74.7
31
0
0
TEXT
8
NUMBERS
10
61.63
20
97.9
30
0
40
2.4
1
20.10
50
0
72
1
11
61.63
21
97.9
31
0
0
LINE
8
HOLES
10
71.18
20
74.65
30
0
11
74.28
21
74.65
31
0
0
LINE
8
HOLES
10
74.28
20
74.65
30
0
11
74.28
21
94.85
31
0
0
LINE
8
HOLES
10
74.28
20
94.85
30
0
11
71.18
21
94.85
31
0
0
LINE
8
HOLES
10
71.18
20
94.85
30
0
11
71.18
21
74.65
31
0
0
TEXT
8
NUMBERS
10
72.73
20
97.9
30
0
40
2.4
1
20.20
50
0
72
1
11
72.73
21
97.9
31
0
0
LINE
8
HOLES
10
82.28
20
74.6
30
0
11
85.38
21
74.6
31
0
0
LINE
8
HOLES
10
85.38
20
74.6
30
0
11
85.38
21
94.9
31
0
0
LINE
8
HOLES
10
85.38
20
94.9
30
0
11
82.28
21
94.9
31
0
0
LINE
8
HOLES
10
82.28
20
94.9
30
0
11
82.28
21
74.6
31
0
0
TEXT
8
NUMBERS
10
83.83
20
97.9
30
0
40
2.4
1
20.30
50
0
72
1
11
83.83
21
97.9
31
0
0
TEXT
8
NUMBERS
10
6.6
20
18.99
30
0
40
2.4
1
2.90
50
0
72
2
11
6.6
21
18.99
31
0
0
TEXT
8
NUMBERS
10
6.6
20
52.29
30
0
40
2.4
1
3.00
50
0
72
2
11
6.6
21
52.29
31
0
0
TEXT
8
NUMBERS
10
6.6
20
85.59
30
0
40
2.4
1
3.10
50
0
72
2
11
6.6
21
85.59
31
0
0
LINE
8
OUTSIDE
10
16
20
122.3
30
0
11
36
21
122.3
31
0
0
LINE
8
OUTSIDE
10
36
20
122.3
30
0
11
36
21
146.3
31
0
0
LINE
8
OUTSIDE
10
36
20
146.3
30
0
11
44
21
146.3
31
0
0
LINE
8
OUTSIDE
10
44
20
146.3
30
0
11
44
21
162.3
31
0
0
LINE
8
OUTSIDE
10
44
20
162.3
30
0
11
8
21
162.3
31
0
0
LINE
8
OUTSIDE
10
8
20
162.3
30
0
11
8
21
146.3
31
0
0
LINE
8
OUTSIDE
10
8
20
146.3
30
0
11
16
21
146.3
31
0
0
LINE
8
OUTSIDE
10
16
20
146.3
30
0
11
16
21
122.3
31
0
0
TEXT
8
NUMBERS
10
26
20
155.14
30
0
40
2.4
1
20 x 3 [mm]
50
0
72
1
11
26
21
155.14
31
0
0
TEXT
8
TEXT
10
46.69
20
-3
30
0
40
2.4
1
Fit tester
50
0
72
1
11
46.69
21
-3
31
0
0
ENDSEC
0
EOF
