0
SECTION
2
HEADER
9
$INSUNITS
70
4
0
ENDSEC
0
SECTION
2
TABLES
0
TABLE
2
LAYER
70
2
0
LAYER
2
CUT
70
0
62
1
6
CONTINUOUS
0
LAYER
2
MARK
70
0
62
8
6
CONTINUOUS
0
ENDTAB
0
ENDSEC
0
SECTION
2
ENTITIES
0
LINE
8
CUT
10
0
20
0
30
0
11
258.1
21
0
31
0
0
LINE
8
CUT
10
258.1
20
0
30
0
11
258.1
21
44
31
0
0
LINE
8
CUT
10
258.1
20
44
30
0
11
0
21
44
31
0
0
LINE
8
CUT
10
0
20
44
30
0
11
0
21
0
31
0
0
LINE
8
CUT
10
10.3
20
8
30
0
11
30
21
8
31
0
0
LINE
8
CUT
10
30
20
8
30
0
11
30
21
36
31
0
0
LINE
8
CUT
10
30
20
36
30
0
11
10.3
21
36
31
0
0
LINE
8
CUT
10
10.3
20
36
30
0
11
10.3
21
8
31
0
0
TEXT
8
MARK
10
20.15
20
48.4
30
0
40
2.4
1
-0.30
50
0
72
1
11
20.15
21
48.4
31
0
0
LINE
8
CUT
10
46.55
20
8
30
0
11
66.35
21
8
31
0
0
LINE
8
CUT
10
66.35
20
8
30
0
11
66.35
21
36
31
0
0
LINE
8
CUT
10
66.35
20
36
30
0
11
46.55
21
36
31
0
0
LINE
8
CUT
10
46.55
20
36
30
0
11
46.55
21
8
31
0
0
TEXT
8
MARK
10
56.45
20
48.4
30
0
40
2.4
1
-0.20
50
0
72
1
11
56.45
21
48.4
31
0
0
LINE
8
CUT
10
82.8
20
8
30
0
11
102.7
21
8
31
0
0
LINE
8
CUT
10
102.7
20
8
30
0
11
102.7
21
36
31
0
0
LINE
8
CUT
10
102.7
20
36
30
0
11
82.8
21
36
31
0
0
LINE
8
CUT
10
82.8
20
36
30
0
11
82.8
21
8
31
0
0
TEXT
8
MARK
10
92.75
20
48.4
30
0
40
2.4
1
-0.10
50
0
72
1
11
92.75
21
48.4
31
0
0
LINE
8
CUT
10
119.05
20
8
30
0
11
139.05
21
8
31
0
0
LINE
8
CUT
10
139.05
20
8
30
0
11
139.05
21
36
31
0
0
LINE
8
CUT
10
139.05
20
36
30
0
11
119.05
21
36
31
0
0
LINE
8
CUT
10
119.05
20
36
30
0
11
119.05
21
8
31
0
0
TEXT
8
MARK
10
129.05
20
48.4
30
0
40
2.4
1
+0.00
50
0
72
1
11
129.05
21
48.4
31
0
0
LINE
8
CUT
10
155.3
20
8
30
0
11
175.4
21
8
31
0
0
LINE
8
CUT
10
175.4
20
8
30
0
11
175.4
21
36
31
0
0
LINE
8
CUT
10
175.4
20
36
30
0
11
155.3
21
36
31
0
0
LINE
8
CUT
10
155.3
20
36
30
0
11
155.3
21
8
31
0
0
TEXT
8
MARK
10
165.35
20
48.4
30
0
40
2.4
1
+0.10
50
0
72
1
11
165.35
21
48.4
31
0
0
LINE
8
CUT
10
191.55
20
8
30
0
11
211.75
21
8
31
0
0
LINE
8
CUT
10
211.75
20
8
30
0
11
211.75
21
36
31
0
0
LINE
8
CUT
10
211.75
20
36
30
0
11
191.55
21
36
31
0
0
LINE
8
CUT
10
191.55
20
36
30
0
11
191.55
21
8
31
0
0
TEXT
8
MARK
10
201.65
20
48.4
30
0
40
2.4
1
+0.20
50
0
72
1
11
201.65
21
48.4
31
0
0
LINE
8
CUT
10
227.8
20
8
30
0
11
248.1
21
8
31
0
0
LINE
8
CUT
10
248.1
20
8
30
0
11
248.1
21
36
31
0
0
LINE
8
CUT
10
248.1
20
36
30
0
11
227.8
21
36
31
0
0
LINE
8
CUT
10
227.8
20
36
30
0
11
227.8
21
8
31
0
0
TEXT
8
MARK
10
237.95
20
48.4
30
0
40
2.4
1
+0.30
50
0
72
1
11
237.95
21
48.4
31
0
0
LINE
8
CUT
10
18
20
58.4
30
0
11
38
21
58.4
31
0
0
LINE
8
CUT
10
38
20
58.4
30
0
11
38
21
82.4
31
0
0
LINE
8
CUT
10
38
20
82.4
30
0
11
46
21
82.4
31
0
0
LINE
8
CUT
10
46
20
82.4
30
0
11
46
21
110.4
31
0
0
LINE
8
CUT
10
46
20
110.4
30
0
11
10
21
110.4
31
0
0
LINE
8
CUT
10
10
20
110.4
30
0
11
10
21
82.4
31
0
0
LINE
8
CUT
10
10
20
82.4
30
0
11
18
21
82.4
31
0
0
LINE
8
CUT
10
18
20
82.4
30
0
11
18
21
58.4
31
0
0
TEXT
8
MARK
10
28
20
114.8
30
0
40
2.4
1
matching coupon
50
0
72
1
11
28
21
114.8
31
0
0
TEXT
8
MARK
10
129.05
20
-3
30
0
40
2.4
1
Fit allowance slots: slot width = nominal tab width + allowance
50
0
72
1
11
129.05
21
-3
31
0
0
ENDSEC
0
EOF
