<?xml version="1.0" encoding="UTF-8"?>
<svg xmlns="http://www.w3.org/2000/svg" width="101.76mm" height="116.9mm" viewBox="-8.03 -10.2 101.76 116.9">
  <title>fit-allowance-tester</title>
  <g fill="none" stroke-linecap="square" stroke-linejoin="miter">
    <path d="M 0 0 L 85.7 0 L 85.7 40.7 L 0 40.7 Z" stroke="#ff0000" stroke-width="0.1" data-layer="CUT" />
    <path d="M 8 8.3 L 11.1 8.3 L 11.1 28 L 8 28 Z" stroke="#ff0000" stroke-width="0.1" data-layer="CUT" />
    <text x="9.55" y="31.2" font-family="Arial, sans-serif" font-size="2.4" text-anchor="middle" fill="#000000" stroke="none" data-layer="MARK">19.70</text>
    <path d="M 19.1 8.25 L 22.2 8.25 L 22.2 28.05 L 19.1 28.05 Z" stroke="#ff0000" stroke-width="0.1" data-layer="CUT" />
    <text x="20.65" y="31.2" font-family="Arial, sans-serif" font-size="2.4" text-anchor="middle" fill="#000000" stroke="none" data-layer="MARK">19.80</text>
    <path d="M 30.2 8.2 L 33.3 8.2 L 33.3 28.1 L 30.2 28.1 Z" stroke="#ff0000" stroke-width="0.1" data-layer="CUT" />
    <text x="31.75" y="31.2" font-family="Arial, sans-serif" font-size="2.4" text-anchor="middle" fill="#000000" stroke="none" data-layer="MARK">19.90</text>
    <path d="M 41.3 8.15 L 44.4 8.15 L 44.4 28.15 L 41.3 28.15 Z" stroke="#ff0000" stroke-width="0.1" data-layer="CUT" />
    <text x="42.85" y="31.2" font-family="Arial, sans-serif" font-size="2.4" text-anchor="middle" fill="#000000" stroke="none" data-layer="MARK">20.00</text>
    <path d="M 52.4 8.1 L 55.5 8.1 L 55.5 28.2 L 52.4 28.2 Z" stroke="#ff0000" stroke-width="0.1" data-layer="CUT" />
    <text x="53.95" y="31.2" font-family="Arial, sans-serif" font-size="2.4" text-anchor="middle" fill="#000000" stroke="none" data-layer="MARK">20.10</text>
    <path d="M 63.5 8.05 L 66.6 8.05 L 66.6 28.25 L 63.5 28.25 Z" stroke="#ff0000" stroke-width="0.1" data-layer="CUT" />
    <text x="65.05" y="31.2" font-family="Arial, sans-serif" font-size="2.4" text-anchor="middle" fill="#000000" stroke="none" data-layer="MARK">20.20</text>
    <path d="M 74.6 8 L 77.7 8 L 77.7 28.3 L 74.6 28.3 Z" stroke="#ff0000" stroke-width="0.1" data-layer="CUT" />
    <text x="76.15" y="31.2" font-family="Arial, sans-serif" font-size="2.4" text-anchor="middle" fill="#000000" stroke="none" data-layer="MARK">20.30</text>
    <path d="M 16 55.1 L 36 55.1 L 36 79.1 L 44 79.1 L 44 95.1 L 8 95.1 L 8 79.1 L 16 79.1 Z" stroke="#ff0000" stroke-width="0.1" data-layer="CUT" />
    <text x="26" y="99.5" font-family="Arial, sans-serif" font-size="2.4" text-anchor="middle" fill="#000000" stroke="none" data-layer="MARK">matching coupon</text>
    <text x="42.85" y="-3" font-family="Arial, sans-serif" font-size="2.4" text-anchor="middle" fill="#000000" stroke="none" data-layer="MARK">Fit holes: vertical = shown label; horizontal = material + clearance</text>
  </g>
</svg>
