0
SECTION
2
HEADER
9
$INSUNITS
70
4
0
ENDSEC
0
SECTION
2
TABLES
0
TABLE
2
LAYER
70
2
0
LAYER
2
CUT
70
0
62
1
6
CONTINUOUS
0
LAYER
2
MARK
70
0
62
7
6
CONTINUOUS
0
ENDTAB
0
ENDSEC
0
SECTION
2
ENTITIES
0
LINE
8
CUT
10
0
20
0
30
0
11
85.7
21
0
31
0
0
LINE
8
CUT
10
85.7
20
0
30
0
11
85.7
21
40.7
31
0
0
LINE
8
CUT
10
85.7
20
40.7
30
0
11
0
21
40.7
31
0
0
LINE
8
CUT
10
0
20
40.7
30
0
11
0
21
0
31
0
0
LINE
8
CUT
10
8
20
8.3
30
0
11
11.1
21
8.3
31
0
0
LINE
8
CUT
10
11.1
20
8.3
30
0
11
11.1
21
28
31
0
0
LINE
8
CUT
10
11.1
20
28
30
0
11
8
21
28
31
0
0
LINE
8
CUT
10
8
20
28
30
0
11
8
21
8.3
31
0
0
TEXT
8
MARK
10
9.55
20
31.2
30
0
40
2.4
1
19.70
50
0
72
1
11
9.55
21
31.2
31
0
0
LINE
8
CUT
10
19.1
20
8.25
30
0
11
22.2
21
8.25
31
0
0
LINE
8
CUT
10
22.2
20
8.25
30
0
11
22.2
21
28.05
31
0
0
LINE
8
CUT
10
22.2
20
28.05
30
0
11
19.1
21
28.05
31
0
0
LINE
8
CUT
10
19.1
20
28.05
30
0
11
19.1
21
8.25
31
0
0
TEXT
8
MARK
10
20.65
20
31.2
30
0
40
2.4
1
19.80
50
0
72
1
11
20.65
21
31.2
31
0
0
LINE
8
CUT
10
30.2
20
8.2
30
0
11
33.3
21
8.2
31
0
0
LINE
8
CUT
10
33.3
20
8.2
30
0
11
33.3
21
28.1
31
0
0
LINE
8
CUT
10
33.3
20
28.1
30
0
11
30.2
21
28.1
31
0
0
LINE
8
CUT
10
30.2
20
28.1
30
0
11
30.2
21
8.2
31
0
0
TEXT
8
MARK
10
31.75
20
31.2
30
0
40
2.4
1
19.90
50
0
72
1
11
31.75
21
31.2
31
0
0
LINE
8
CUT
10
41.3
20
8.15
30
0
11
44.4
21
8.15
31
0
0
LINE
8
CUT
10
44.4
20
8.15
30
0
11
44.4
21
28.15
31
0
0
LINE
8
CUT
10
44.4
20
28.15
30
0
11
41.3
21
28.15
31
0
0
LINE
8
CUT
10
41.3
20
28.15
30
0
11
41.3
21
8.15
31
0
0
TEXT
8
MARK
10
42.85
20
31.2
30
0
40
2.4
1
20.00
50
0
72
1
11
42.85
21
31.2
31
0
0
LINE
8
CUT
10
52.4
20
8.1
30
0
11
55.5
21
8.1
31
0
0
LINE
8
CUT
10
55.5
20
8.1
30
0
11
55.5
21
28.2
31
0
0
LINE
8
CUT
10
55.5
20
28.2
30
0
11
52.4
21
28.2
31
0
0
LINE
8
CUT
10
52.4
20
28.2
30
0
11
52.4
21
8.1
31
0
0
TEXT
8
MARK
10
53.95
20
31.2
30
0
40
2.4
1
20.10
50
0
72
1
11
53.95
21
31.2
31
0
0
LINE
8
CUT
10
63.5
20
8.05
30
0
11
66.6
21
8.05
31
0
0
LINE
8
CUT
10
66.6
20
8.05
30
0
11
66.6
21
28.25
31
0
0
LINE
8
CUT
10
66.6
20
28.25
30
0
11
63.5
21
28.25
31
0
0
LINE
8
CUT
10
63.5
20
28.25
30
0
11
63.5
21
8.05
31
0
0
TEXT
8
MARK
10
65.05
20
31.2
30
0
40
2.4
1
20.20
50
0
72
1
11
65.05
21
31.2
31
0
0
LINE
8
CUT
10
74.6
20
8
30
0
11
77.7
21
8
31
0
0
LINE
8
CUT
10
77.7
20
8
30
0
11
77.7
21
28.3
31
0
0
LINE
8
CUT
10
77.7
20
28.3
30
0
11
74.6
21
28.3
31
0
0
LINE
8
CUT
10
74.6
20
28.3
30
0
11
74.6
21
8
31
0
0
TEXT
8
MARK
10
76.15
20
31.2
30
0
40
2.4
1
20.30
50
0
72
1
11
76.15
21
31.2
31
0
0
LINE
8
CUT
10
16
20
55.1
30
0
11
36
21
55.1
31
0
0
LINE
8
CUT
10
36
20
55.1
30
0
11
36
21
79.1
31
0
0
LINE
8
CUT
10
36
20
79.1
30
0
11
44
21
79.1
31
0
0
LINE
8
CUT
10
44
20
79.1
30
0
11
44
21
95.1
31
0
0
LINE
8
CUT
10
44
20
95.1
30
0
11
8
21
95.1
31
0
0
LINE
8
CUT
10
8
20
95.1
30
0
11
8
21
79.1
31
0
0
LINE
8
CUT
10
8
20
79.1
30
0
11
16
21
79.1
31
0
0
LINE
8
CUT
10
16
20
79.1
30
0
11
16
21
55.1
31
0
0
TEXT
8
MARK
10
26
20
99.5
30
0
40
2.4
1
matching coupon
50
0
72
1
11
26
21
99.5
31
0
0
TEXT
8
MARK
10
42.85
20
-3
30
0
40
2.4
1
Fit holes: vertical = shown label; horizontal = material + clearance
50
0
72
1
11
42.85
21
-3
31
0
0
ENDSEC
0
EOF
