0
SECTION
2
HEADER
9
$INSUNITS
70
4
0
ENDSEC
0
SECTION
2
TABLES
0
TABLE
2
LAYER
70
2
0
LAYER
2
CUT
70
0
62
1
6
CONTINUOUS
0
LAYER
2
MARK
70
0
62
7
6
CONTINUOUS
0
ENDTAB
0
ENDSEC
0
SECTION
2
ENTITIES
0
LINE
8
CUT
10
0
20
0
30
0
11
137.7
21
0
31
0
0
LINE
8
CUT
10
137.7
20
0
30
0
11
137.7
21
44
31
0
0
LINE
8
CUT
10
137.7
20
44
30
0
11
0
21
44
31
0
0
LINE
8
CUT
10
0
20
44
30
0
11
0
21
0
31
0
0
LINE
8
CUT
10
10
20
12.15
30
0
11
13.1
21
12.15
31
0
0
LINE
8
CUT
10
13.1
20
12.15
30
0
11
13.1
21
31.85
31
0
0
LINE
8
CUT
10
13.1
20
31.85
30
0
11
10
21
31.85
31
0
0
LINE
8
CUT
10
10
20
31.85
30
0
11
10
21
12.15
31
0
0
TEXT
8
MARK
10
11.55
20
48.4
30
0
40
2.4
1
-0.30
50
0
72
1
11
11.55
21
48.4
31
0
0
LINE
8
CUT
10
29.1
20
12.1
30
0
11
32.2
21
12.1
31
0
0
LINE
8
CUT
10
32.2
20
12.1
30
0
11
32.2
21
31.9
31
0
0
LINE
8
CUT
10
32.2
20
31.9
30
0
11
29.1
21
31.9
31
0
0
LINE
8
CUT
10
29.1
20
31.9
30
0
11
29.1
21
12.1
31
0
0
TEXT
8
MARK
10
30.65
20
48.4
30
0
40
2.4
1
-0.20
50
0
72
1
11
30.65
21
48.4
31
0
0
LINE
8
CUT
10
48.2
20
12.05
30
0
11
51.3
21
12.05
31
0
0
LINE
8
CUT
10
51.3
20
12.05
30
0
11
51.3
21
31.95
31
0
0
LINE
8
CUT
10
51.3
20
31.95
30
0
11
48.2
21
31.95
31
0
0
LINE
8
CUT
10
48.2
20
31.95
30
0
11
48.2
21
12.05
31
0
0
TEXT
8
MARK
10
49.75
20
48.4
30
0
40
2.4
1
-0.10
50
0
72
1
11
49.75
21
48.4
31
0
0
LINE
8
CUT
10
67.3
20
12
30
0
11
70.4
21
12
31
0
0
LINE
8
CUT
10
70.4
20
12
30
0
11
70.4
21
32
31
0
0
LINE
8
CUT
10
70.4
20
32
30
0
11
67.3
21
32
31
0
0
LINE
8
CUT
10
67.3
20
32
30
0
11
67.3
21
12
31
0
0
TEXT
8
MARK
10
68.85
20
48.4
30
0
40
2.4
1
+0.00
50
0
72
1
11
68.85
21
48.4
31
0
0
LINE
8
CUT
10
86.4
20
11.95
30
0
11
89.5
21
11.95
31
0
0
LINE
8
CUT
10
89.5
20
11.95
30
0
11
89.5
21
32.05
31
0
0
LINE
8
CUT
10
89.5
20
32.05
30
0
11
86.4
21
32.05
31
0
0
LINE
8
CUT
10
86.4
20
32.05
30
0
11
86.4
21
11.95
31
0
0
TEXT
8
MARK
10
87.95
20
48.4
30
0
40
2.4
1
+0.10
50
0
72
1
11
87.95
21
48.4
31
0
0
LINE
8
CUT
10
105.5
20
11.9
30
0
11
108.6
21
11.9
31
0
0
LINE
8
CUT
10
108.6
20
11.9
30
0
11
108.6
21
32.1
31
0
0
LINE
8
CUT
10
108.6
20
32.1
30
0
11
105.5
21
32.1
31
0
0
LINE
8
CUT
10
105.5
20
32.1
30
0
11
105.5
21
11.9
31
0
0
TEXT
8
MARK
10
107.05
20
48.4
30
0
40
2.4
1
+0.20
50
0
72
1
11
107.05
21
48.4
31
0
0
LINE
8
CUT
10
124.6
20
11.85
30
0
11
127.7
21
11.85
31
0
0
LINE
8
CUT
10
127.7
20
11.85
30
0
11
127.7
21
32.15
31
0
0
LINE
8
CUT
10
127.7
20
32.15
30
0
11
124.6
21
32.15
31
0
0
LINE
8
CUT
10
124.6
20
32.15
30
0
11
124.6
21
11.85
31
0
0
TEXT
8
MARK
10
126.15
20
48.4
30
0
40
2.4
1
+0.30
50
0
72
1
11
126.15
21
48.4
31
0
0
LINE
8
CUT
10
10
20
58.4
30
0
11
34
21
58.4
31
0
0
LINE
8
CUT
10
34
20
58.4
30
0
11
34
21
66.4
31
0
0
LINE
8
CUT
10
34
20
66.4
30
0
11
37
21
66.4
31
0
0
LINE
8
CUT
10
37
20
66.4
30
0
11
37
21
86.4
31
0
0
LINE
8
CUT
10
37
20
86.4
30
0
11
34
21
86.4
31
0
0
LINE
8
CUT
10
34
20
86.4
30
0
11
34
21
94.4
31
0
0
LINE
8
CUT
10
34
20
94.4
30
0
11
10
21
94.4
31
0
0
LINE
8
CUT
10
10
20
94.4
30
0
11
10
21
58.4
31
0
0
TEXT
8
MARK
10
23.5
20
98.8
30
0
40
2.4
1
matching coupon
50
0
72
1
11
23.5
21
98.8
31
0
0
TEXT
8
MARK
10
68.85
20
-3
30
0
40
2.4
1
Fit holes: vertical = nominal pin + allowance; horizontal = material + clearance
50
0
72
1
11
68.85
21
-3
31
0
0
ENDSEC
0
EOF
