0
SECTION
2
HEADER
9
$INSUNITS
70
4
0
ENDSEC
0
SECTION
2
TABLES
0
TABLE
2
LAYER
70
2
0
LAYER
2
CUT
70
0
62
1
6
CONTINUOUS
0
LAYER
2
MARK
70
0
62
8
6
CONTINUOUS
0
ENDTAB
0
ENDSEC
0
SECTION
2
ENTITIES
0
LINE
8
CUT
10
0
20
0
30
0
11
80
21
0
31
0
0
LINE
8
CUT
10
80
20
0
30
0
11
80
21
70
31
0
0
LINE
8
CUT
10
80
20
70
30
0
11
0
21
70
31
0
0
LINE
8
CUT
10
0
20
70
30
0
11
0
21
0
31
0
0
LINE
8
CUT
10
10
20
26
30
0
11
62
21
26
31
0
0
LINE
8
CUT
10
62
20
26
30
0
11
62
21
60
31
0
0
LINE
8
CUT
10
62
20
60
30
0
11
10
21
60
31
0
0
LINE
8
CUT
10
10
20
60
30
0
11
10
21
26
31
0
0
LINE
8
MARK
10
66
20
26
30
0
11
66
21
24
31
0
0
LINE
8
MARK
10
66
20
26
30
0
11
69.4
21
26
31
0
0
TEXT
8
MARK
10
72.4
20
26.77
30
0
40
2.2
1
0.0
50
0
72
0
0
LINE
8
MARK
10
66
20
25.9
30
0
11
67.4
21
25.9
31
0
0
LINE
8
MARK
10
66
20
25.8
30
0
11
67.4
21
25.8
31
0
0
LINE
8
MARK
10
66
20
25.7
30
0
11
67.4
21
25.7
31
0
0
LINE
8
MARK
10
66
20
25.6
30
0
11
67.4
21
25.6
31
0
0
LINE
8
MARK
10
66
20
25.5
30
0
11
69.4
21
25.5
31
0
0
TEXT
8
MARK
10
72.4
20
26.27
30
0
40
2.2
1
0.5
50
0
72
0
0
LINE
8
MARK
10
66
20
25.4
30
0
11
67.4
21
25.4
31
0
0
LINE
8
MARK
10
66
20
25.3
30
0
11
67.4
21
25.3
31
0
0
LINE
8
MARK
10
66
20
25.2
30
0
11
67.4
21
25.2
31
0
0
LINE
8
MARK
10
66
20
25.1
30
0
11
67.4
21
25.1
31
0
0
LINE
8
MARK
10
66
20
25
30
0
11
69.4
21
25
31
0
0
TEXT
8
MARK
10
72.4
20
25.77
30
0
40
2.2
1
1.0
50
0
72
0
0
LINE
8
MARK
10
66
20
24.9
30
0
11
67.4
21
24.9
31
0
0
LINE
8
MARK
10
66
20
24.8
30
0
11
67.4
21
24.8
31
0
0
LINE
8
MARK
10
66
20
24.7
30
0
11
67.4
21
24.7
31
0
0
LINE
8
MARK
10
66
20
24.6
30
0
11
67.4
21
24.6
31
0
0
LINE
8
MARK
10
66
20
24.5
30
0
11
69.4
21
24.5
31
0
0
TEXT
8
MARK
10
72.4
20
25.27
30
0
40
2.2
1
1.5
50
0
72
0
0
LINE
8
MARK
10
66
20
24.4
30
0
11
67.4
21
24.4
31
0
0
LINE
8
MARK
10
66
20
24.3
30
0
11
67.4
21
24.3
31
0
0
LINE
8
MARK
10
66
20
24.2
30
0
11
67.4
21
24.2
31
0
0
LINE
8
MARK
10
66
20
24.1
30
0
11
67.4
21
24.1
31
0
0
LINE
8
MARK
10
66
20
24
30
0
11
69.4
21
24
31
0
0
TEXT
8
MARK
10
72.4
20
24.77
30
0
40
2.2
1
2.0
50
0
72
0
0
TEXT
8
MARK
10
40
20
-3
30
0
40
2.2
1
Kerf gauge: slide coupon to one side, read total gap
50
0
72
1
11
40
21
-3
31
0
0
TEXT
8
MARK
10
88
20
35
30
0
40
2.2
1
70 mm reference
50
-90
72
1
11
88
21
35
31
0
0
LINE
8
MARK
10
83
20
0
30
0
11
83
21
70
31
0
0
LINE
8
MARK
10
81.5
20
0
30
0
11
84.5
21
0
31
0
0
LINE
8
MARK
10
81.5
20
70
30
0
11
84.5
21
70
31
0
0
ENDSEC
0
EOF
