0
SECTION
2
HEADER
9
$INSUNITS
70
4
0
ENDSEC
0
SECTION
2
TABLES
0
TABLE
2
LAYER
70
2
0
LAYER
2
CUT
70
0
62
1
6
CONTINUOUS
0
LAYER
2
MARK
70
0
62
7
6
CONTINUOUS
0
ENDTAB
0
ENDSEC
0
SECTION
2
ENTITIES
0
LINE
8
CUT
10
0
20
0
30
0
11
160
21
0
31
0
0
LINE
8
CUT
10
160
20
0
30
0
11
160
21
44
31
0
0
LINE
8
CUT
10
160
20
44
30
0
11
0
21
44
31
0
0
LINE
8
CUT
10
0
20
44
30
0
11
0
21
0
31
0
0
LINE
8
CUT
10
14
20
14
30
0
11
154
21
14
31
0
0
LINE
8
CUT
10
154
20
14
30
0
11
154
21
27
31
0
0
LINE
8
CUT
10
154
20
27
30
0
11
14
21
27
31
0
0
LINE
8
CUT
10
14
20
27
30
0
11
14
21
14
31
0
0
LINE
8
CUT
10
14
20
27
30
0
11
133
21
27
31
0
0
LINE
8
CUT
10
133
20
27
30
0
11
133
21
34
31
0
0
LINE
8
CUT
10
133
20
34
30
0
11
14
21
34
31
0
0
LINE
8
CUT
10
14
20
34
30
0
11
14
21
27
31
0
0
LINE
8
CUT
10
133
20
27
30
0
11
154
21
27
31
0
0
LINE
8
CUT
10
154
20
27
30
0
11
154
21
34
31
0
0
LINE
8
CUT
10
154
20
34
30
0
11
133
21
34
31
0
0
LINE
8
CUT
10
133
20
34
30
0
11
133
21
27
31
0
0
LINE
8
CUT
10
21
20
14
30
0
11
21
21
27
31
0
0
LINE
8
CUT
10
28
20
14
30
0
11
28
21
27
31
0
0
LINE
8
CUT
10
35
20
14
30
0
11
35
21
27
31
0
0
LINE
8
CUT
10
42
20
14
30
0
11
42
21
27
31
0
0
LINE
8
CUT
10
49
20
14
30
0
11
49
21
27
31
0
0
LINE
8
CUT
10
56
20
14
30
0
11
56
21
27
31
0
0
LINE
8
CUT
10
63
20
14
30
0
11
63
21
27
31
0
0
LINE
8
CUT
10
70
20
14
30
0
11
70
21
27
31
0
0
LINE
8
CUT
10
77
20
14
30
0
11
77
21
27
31
0
0
LINE
8
CUT
10
84
20
14
30
0
11
84
21
27
31
0
0
LINE
8
CUT
10
91
20
14
30
0
11
91
21
27
31
0
0
LINE
8
CUT
10
98
20
14
30
0
11
98
21
27
31
0
0
LINE
8
CUT
10
105
20
14
30
0
11
105
21
27
31
0
0
LINE
8
CUT
10
112
20
14
30
0
11
112
21
27
31
0
0
LINE
8
CUT
10
119
20
14
30
0
11
119
21
27
31
0
0
LINE
8
CUT
10
126
20
14
30
0
11
126
21
27
31
0
0
LINE
8
CUT
10
133
20
14
30
0
11
133
21
27
31
0
0
LINE
8
CUT
10
140
20
14
30
0
11
140
21
27
31
0
0
LINE
8
CUT
10
147
20
14
30
0
11
147
21
27
31
0
0
LINE
8
MARK
10
14
20
14
30
0
11
14
21
9.8
31
0
0
TEXT
8
MARK
10
14
20
9.2
30
0
40
2
1
0
50
0
72
1
11
14
21
9.2
31
0
0
LINE
8
MARK
10
16
20
14
30
0
11
16
21
11.4
31
0
0
LINE
8
MARK
10
18
20
14
30
0
11
18
21
11.4
31
0
0
LINE
8
MARK
10
20
20
14
30
0
11
20
21
11.4
31
0
0
LINE
8
MARK
10
22
20
14
30
0
11
22
21
11.4
31
0
0
LINE
8
MARK
10
24
20
14
30
0
11
24
21
9.8
31
0
0
TEXT
8
MARK
10
24
20
9.2
30
0
40
2
1
5
50
0
72
1
11
24
21
9.2
31
0
0
LINE
8
MARK
10
26
20
14
30
0
11
26
21
11.4
31
0
0
LINE
8
MARK
10
28
20
14
30
0
11
28
21
11.4
31
0
0
LINE
8
MARK
10
30
20
14
30
0
11
30
21
11.4
31
0
0
LINE
8
MARK
10
32
20
14
30
0
11
32
21
11.4
31
0
0
LINE
8
MARK
10
34
20
14
30
0
11
34
21
9.8
31
0
0
TEXT
8
MARK
10
34
20
9.2
30
0
40
2
1
10
50
0
72
1
11
34
21
9.2
31
0
0
LINE
8
MARK
10
36
20
14
30
0
11
36
21
11.4
31
0
0
LINE
8
MARK
10
38
20
14
30
0
11
38
21
11.4
31
0
0
LINE
8
MARK
10
40
20
14
30
0
11
40
21
11.4
31
0
0
LINE
8
MARK
10
42
20
14
30
0
11
42
21
11.4
31
0
0
LINE
8
MARK
10
44
20
14
30
0
11
44
21
9.8
31
0
0
TEXT
8
MARK
10
44
20
9.2
30
0
40
2
1
15
50
0
72
1
11
44
21
9.2
31
0
0
LINE
8
MARK
10
14
20
34
30
0
11
14
21
38.2
31
0
0
TEXT
8
MARK
10
14
20
40.4
30
0
40
2
1
0
50
0
72
1
11
14
21
40.4
31
0
0
LINE
8
MARK
10
15.38
20
34
30
0
11
15.38
21
37
31
0
0
LINE
8
MARK
10
16.76
20
34
30
0
11
16.76
21
37
31
0
0
LINE
8
MARK
10
18.14
20
34
30
0
11
18.14
21
37
31
0
0
LINE
8
MARK
10
19.52
20
34
30
0
11
19.52
21
37
31
0
0
LINE
8
MARK
10
20.9
20
34
30
0
11
20.9
21
38.2
31
0
0
TEXT
8
MARK
10
20.9
20
40.4
30
0
40
2
1
5
50
0
72
1
11
20.9
21
40.4
31
0
0
LINE
8
MARK
10
22.28
20
34
30
0
11
22.28
21
37
31
0
0
LINE
8
MARK
10
23.66
20
34
30
0
11
23.66
21
37
31
0
0
LINE
8
MARK
10
25.04
20
34
30
0
11
25.04
21
37
31
0
0
LINE
8
MARK
10
26.42
20
34
30
0
11
26.42
21
37
31
0
0
LINE
8
MARK
10
27.8
20
34
30
0
11
27.8
21
38.2
31
0
0
TEXT
8
MARK
10
27.8
20
40.4
30
0
40
2
1
10
50
0
72
1
11
27.8
21
40.4
31
0
0
LINE
8
MARK
10
29.18
20
34
30
0
11
29.18
21
37
31
0
0
LINE
8
MARK
10
30.56
20
34
30
0
11
30.56
21
37
31
0
0
LINE
8
MARK
10
31.94
20
34
30
0
11
31.94
21
37
31
0
0
LINE
8
MARK
10
33.32
20
34
30
0
11
33.32
21
37
31
0
0
LINE
8
MARK
10
34.7
20
34
30
0
11
34.7
21
38.2
31
0
0
TEXT
8
MARK
10
34.7
20
40.4
30
0
40
2
1
15
50
0
72
1
11
34.7
21
40.4
31
0
0
LINE
8
MARK
10
36.08
20
34
30
0
11
36.08
21
37
31
0
0
LINE
8
MARK
10
37.46
20
34
30
0
11
37.46
21
37
31
0
0
LINE
8
MARK
10
38.84
20
34
30
0
11
38.84
21
37
31
0
0
LINE
8
MARK
10
40.22
20
34
30
0
11
40.22
21
37
31
0
0
LINE
8
MARK
10
41.6
20
34
30
0
11
41.6
21
38.2
31
0
0
TEXT
8
MARK
10
41.6
20
40.4
30
0
40
2
1
20
50
0
72
1
11
41.6
21
40.4
31
0
0
LINE
8
MARK
10
14
20
30.5
30
0
11
128
21
30.5
31
0
0
TEXT
8
MARK
10
80
20
9
30
0
40
3
1
Vernier Kerf Offset Test
50
0
72
1
11
80
21
9
31
0
0
TEXT
8
MARK
10
130
20
8
30
0
40
2
1
Kerf offset = D.E / 40
50
0
72
1
11
130
21
8
31
0
0
TEXT
8
MARK
10
73.5
20
31.55
30
0
40
3
1
SLIDE ->
50
0
72
1
11
73.5
21
31.55
31
0
0
TEXT
8
MARK
10
143.5
20
31.55
30
0
40
3
1
DISCARD
50
0
72
1
11
143.5
21
31.55
31
0
0
ENDSEC
0
EOF
