0
SECTION
2
HEADER
9
$INSUNITS
70
4
0
ENDSEC
0
SECTION
2
TABLES
0
TABLE
2
LAYER
70
2
0
LAYER
2
CUT
70
0
62
1
6
CONTINUOUS
0
LAYER
2
MARK
70
0
62
7
6
CONTINUOUS
0
ENDTAB
0
ENDSEC
0
SECTION
2
ENTITIES
0
LINE
8
CUT
10
0
20
0
30
0
11
160
21
0
31
0
0
LINE
8
CUT
10
160
20
0
30
0
11
160
21
44
31
0
0
LINE
8
CUT
10
160
20
44
30
0
11
0
21
44
31
0
0
LINE
8
CUT
10
0
20
44
30
0
11
0
21
0
31
0
0
LINE
8
CUT
10
14
20
14
30
0
11
138
21
14
31
0
0
LINE
8
CUT
10
138
20
14
30
0
11
138
21
27
31
0
0
LINE
8
CUT
10
138
20
27
30
0
11
14
21
27
31
0
0
LINE
8
CUT
10
14
20
27
30
0
11
14
21
14
31
0
0
LINE
8
CUT
10
14
20
27
30
0
11
138
21
27
31
0
0
LINE
8
CUT
10
138
20
27
30
0
11
138
21
34
31
0
0
LINE
8
CUT
10
138
20
34
30
0
11
14
21
34
31
0
0
LINE
8
CUT
10
14
20
34
30
0
11
14
21
27
31
0
0
LINE
8
CUT
10
138
20
27
30
0
11
154
21
27
31
0
0
LINE
8
CUT
10
154
20
27
30
0
11
154
21
34
31
0
0
LINE
8
CUT
10
154
20
34
30
0
11
138
21
34
31
0
0
LINE
8
CUT
10
138
20
34
30
0
11
138
21
27
31
0
0
LINE
8
CUT
10
20.2
20
14
30
0
11
20.2
21
27
31
0
0
LINE
8
CUT
10
26.4
20
14
30
0
11
26.4
21
27
31
0
0
LINE
8
CUT
10
32.6
20
14
30
0
11
32.6
21
27
31
0
0
LINE
8
CUT
10
38.8
20
14
30
0
11
38.8
21
27
31
0
0
LINE
8
CUT
10
45
20
14
30
0
11
45
21
27
31
0
0
LINE
8
CUT
10
51.2
20
14
30
0
11
51.2
21
27
31
0
0
LINE
8
CUT
10
57.4
20
14
30
0
11
57.4
21
27
31
0
0
LINE
8
CUT
10
63.6
20
14
30
0
11
63.6
21
27
31
0
0
LINE
8
CUT
10
69.8
20
14
30
0
11
69.8
21
27
31
0
0
LINE
8
CUT
10
76
20
14
30
0
11
76
21
27
31
0
0
LINE
8
CUT
10
82.2
20
14
30
0
11
82.2
21
27
31
0
0
LINE
8
CUT
10
88.4
20
14
30
0
11
88.4
21
27
31
0
0
LINE
8
CUT
10
94.6
20
14
30
0
11
94.6
21
27
31
0
0
LINE
8
CUT
10
100.8
20
14
30
0
11
100.8
21
27
31
0
0
LINE
8
CUT
10
107
20
14
30
0
11
107
21
27
31
0
0
LINE
8
CUT
10
113.2
20
14
30
0
11
113.2
21
27
31
0
0
LINE
8
CUT
10
119.4
20
14
30
0
11
119.4
21
27
31
0
0
LINE
8
CUT
10
125.6
20
14
30
0
11
125.6
21
27
31
0
0
LINE
8
CUT
10
131.8
20
14
30
0
11
131.8
21
27
31
0
0
LINE
8
MARK
10
14
20
14
30
0
11
14
21
9.8
31
0
0
TEXT
8
MARK
10
14
20
9.2
30
0
40
2
1
0
50
0
72
1
11
14
21
9.2
31
0
0
LINE
8
MARK
10
16
20
14
30
0
11
16
21
11.4
31
0
0
LINE
8
MARK
10
18
20
14
30
0
11
18
21
11.4
31
0
0
LINE
8
MARK
10
20
20
14
30
0
11
20
21
11.4
31
0
0
LINE
8
MARK
10
22
20
14
30
0
11
22
21
11.4
31
0
0
LINE
8
MARK
10
24
20
14
30
0
11
24
21
9.8
31
0
0
TEXT
8
MARK
10
24
20
9.2
30
0
40
2
1
5
50
0
72
1
11
24
21
9.2
31
0
0
LINE
8
MARK
10
26
20
14
30
0
11
26
21
11.4
31
0
0
LINE
8
MARK
10
28
20
14
30
0
11
28
21
11.4
31
0
0
LINE
8
MARK
10
30
20
14
30
0
11
30
21
11.4
31
0
0
LINE
8
MARK
10
32
20
14
30
0
11
32
21
11.4
31
0
0
LINE
8
MARK
10
34
20
14
30
0
11
34
21
9.8
31
0
0
TEXT
8
MARK
10
34
20
9.2
30
0
40
2
1
10
50
0
72
1
11
34
21
9.2
31
0
0
LINE
8
MARK
10
36
20
14
30
0
11
36
21
11.4
31
0
0
LINE
8
MARK
10
38
20
14
30
0
11
38
21
11.4
31
0
0
LINE
8
MARK
10
40
20
14
30
0
11
40
21
11.4
31
0
0
LINE
8
MARK
10
42
20
14
30
0
11
42
21
11.4
31
0
0
LINE
8
MARK
10
44
20
14
30
0
11
44
21
9.8
31
0
0
TEXT
8
MARK
10
44
20
9.2
30
0
40
2
1
15
50
0
72
1
11
44
21
9.2
31
0
0
LINE
8
MARK
10
14
20
34
30
0
11
14
21
38.2
31
0
0
TEXT
8
MARK
10
14
20
40.4
30
0
40
2
1
0
50
0
72
1
11
14
21
40.4
31
0
0
LINE
8
MARK
10
15.38
20
34
30
0
11
15.38
21
37
31
0
0
LINE
8
MARK
10
16.76
20
34
30
0
11
16.76
21
37
31
0
0
LINE
8
MARK
10
18.14
20
34
30
0
11
18.14
21
37
31
0
0
LINE
8
MARK
10
19.52
20
34
30
0
11
19.52
21
37
31
0
0
LINE
8
MARK
10
20.9
20
34
30
0
11
20.9
21
38.2
31
0
0
TEXT
8
MARK
10
20.9
20
40.4
30
0
40
2
1
5
50
0
72
1
11
20.9
21
40.4
31
0
0
LINE
8
MARK
10
22.28
20
34
30
0
11
22.28
21
37
31
0
0
LINE
8
MARK
10
23.66
20
34
30
0
11
23.66
21
37
31
0
0
LINE
8
MARK
10
25.04
20
34
30
0
11
25.04
21
37
31
0
0
LINE
8
MARK
10
26.42
20
34
30
0
11
26.42
21
37
31
0
0
LINE
8
MARK
10
27.8
20
34
30
0
11
27.8
21
38.2
31
0
0
TEXT
8
MARK
10
27.8
20
40.4
30
0
40
2
1
10
50
0
72
1
11
27.8
21
40.4
31
0
0
LINE
8
MARK
10
29.18
20
34
30
0
11
29.18
21
37
31
0
0
LINE
8
MARK
10
30.56
20
34
30
0
11
30.56
21
37
31
0
0
LINE
8
MARK
10
31.94
20
34
30
0
11
31.94
21
37
31
0
0
LINE
8
MARK
10
33.32
20
34
30
0
11
33.32
21
37
31
0
0
LINE
8
MARK
10
34.7
20
34
30
0
11
34.7
21
38.2
31
0
0
TEXT
8
MARK
10
34.7
20
40.4
30
0
40
2
1
15
50
0
72
1
11
34.7
21
40.4
31
0
0
LINE
8
MARK
10
36.08
20
34
30
0
11
36.08
21
37
31
0
0
LINE
8
MARK
10
37.46
20
34
30
0
11
37.46
21
37
31
0
0
LINE
8
MARK
10
38.84
20
34
30
0
11
38.84
21
37
31
0
0
LINE
8
MARK
10
40.22
20
34
30
0
11
40.22
21
37
31
0
0
LINE
8
MARK
10
41.6
20
34
30
0
11
41.6
21
38.2
31
0
0
TEXT
8
MARK
10
41.6
20
40.4
30
0
40
2
1
20
50
0
72
1
11
41.6
21
40.4
31
0
0
LINE
8
MARK
10
14
20
30.5
30
0
11
133
21
30.5
31
0
0
TEXT
8
MARK
10
80
20
9
30
0
40
3
1
Vernier Kerf Offset Test
50
0
72
1
11
80
21
9
31
0
0
TEXT
8
MARK
10
130
20
8
30
0
40
2
1
Kerf offset = D.E / 40
50
0
72
1
11
130
21
8
31
0
0
TEXT
8
MARK
10
12.2
20
20.5
30
0
40
3
1
D
50
0
72
2
11
12.2
21
20.5
31
0
0
TEXT
8
MARK
10
25.592
20
36.2
30
0
40
3
1
E
50
0
72
0
0
TEXT
8
MARK
10
76
20
31.55
30
0
40
3
1
SLIDE ->
50
0
72
1
11
76
21
31.55
31
0
0
TEXT
8
MARK
10
146
20
31.55
30
0
40
3
1
DISCARD
50
0
72
1
11
146
21
31.55
31
0
0
ENDSEC
0
EOF
